<svg width="220" height="220" viewBox="0 0 220 220" fill="none" xmlns="http://www.w3.org/2000/svg">
  <defs>
    <linearGradient id="markGreen" x1="52" y1="32" x2="164" y2="182" gradientUnits="userSpaceOnUse">
      <stop offset="0" stop-color="#166534"/>
      <stop offset="1" stop-color="#14532D"/>
    </linearGradient>
    <linearGradient id="markLeaf" x1="110" y1="58" x2="110" y2="132" gradientUnits="userSpaceOnUse">
      <stop offset="0" stop-color="#86EFAC"/>
      <stop offset="1" stop-color="#22C55E"/>
    </linearGradient>
  </defs>

  <circle cx="110" cy="110" r="101" fill="#FFFFFF"/>
  <circle cx="110" cy="110" r="98" stroke="#C58C24" stroke-width="6"/>
  <circle cx="110" cy="110" r="86" fill="url(#markGreen)"/>

  <path d="M110 62V132" stroke="#DCFCE7" stroke-width="4" stroke-linecap="round"/>
  <path d="M109 76C100 65 89 61 76 61C84 70 92 79 102 86" fill="url(#markLeaf)"/>
  <path d="M111 80C121 66 134 60 149 59C143 74 133 84 120 92" fill="url(#markLeaf)"/>
  <path d="M112 101C123 93 135 90 150 93C139 104 128 111 116 117" fill="url(#markLeaf)"/>

  <text x="110" y="166" text-anchor="middle" fill="#F0FDF4" font-family="Poppins, Montserrat, sans-serif" font-size="44" font-weight="800" letter-spacing="2">JAC</text>
</svg>
